<svg width="21" height="20" viewBox="0 0 21 20" fill="none" xmlns="http://www.w3.org/2000/svg">
<path d="M4.125 0.25C3.22989 0.25 2.37145 0.605579 1.73851 1.23851C1.10558 1.87145 0.75 2.72989 0.75 3.625V6.25C0.75 6.44891 0.829018 6.63968 0.96967 6.78033C1.11032 6.92098 1.30109 7 1.5 7C1.69891 7 1.88968 6.92098 2.03033 6.78033C2.17098 6.63968 2.25 6.44891 2.25 6.25V3.625C2.25 3.12772 2.44754 2.65081 2.79917 2.29917C3.15081 1.94754 3.62772 1.75 4.125 1.75H6.75C6.94891 1.75 7.13968 1.67098 7.28033 1.53033C7.42098 1.38968 7.5 1.19891 7.5 1C7.5 0.801088 7.42098 0.610322 7.28033 0.46967C7.13968 0.329018 6.94891 0.25 6.75 0.25H4.125ZM14.25 0.25C14.0511 0.25 13.8603 0.329018 13.7197 0.46967C13.579 0.610322 13.5 0.801088 13.5 1C13.5 1.19891 13.579 1.38968 13.7197 1.53033C13.8603 1.67098 14.0511 1.75 14.25 1.75H16.875C17.3723 1.75 17.8492 1.94754 18.2008 2.29917C18.5525 2.65081 18.75 3.12772 18.75 3.625V6.25C18.75 6.44891 18.829 6.63968 18.9697 6.78033C19.1103 6.92098 19.3011 7 19.5 7C19.6989 7 19.8897 6.92098 20.0303 6.78033C20.171 6.63968 20.25 6.44891 20.25 6.25V3.625C20.25 2.72989 19.8944 1.87145 19.2615 1.23851C18.6285 0.605579 17.7701 0.25 16.875 0.25H14.25ZM2.25 13.75C2.25 13.5511 2.17098 13.3603 2.03033 13.2197C1.88968 13.079 1.69891 13 1.5 13C1.30109 13 1.11032 13.079 0.96967 13.2197C0.829018 13.3603 0.75 13.5511 0.75 13.75V16.375C0.75 17.2701 1.10558 18.1285 1.73851 18.7615C2.37145 19.3944 3.22989 19.75 4.125 19.75H6.75C6.94891 19.75 7.13968 19.671 7.28033 19.5303C7.42098 19.3897 7.5 19.1989 7.5 19C7.5 18.8011 7.42098 18.6103 7.28033 18.4697C7.13968 18.329 6.94891 18.25 6.75 18.25H4.125C3.62772 18.25 3.15081 18.0525 2.79917 17.7008C2.44754 17.3492 2.25 16.8723 2.25 16.375V13.75ZM20.25 13.75C20.25 13.5511 20.171 13.3603 20.0303 13.2197C19.8897 13.079 19.6989 13 19.5 13C19.3011 13 19.1103 13.079 18.9697 13.2197C18.829 13.3603 18.75 13.5511 18.75 13.75V16.375C18.75 16.8723 18.5525 17.3492 18.2008 17.7008C17.8492 18.0525 17.3723 18.25 16.875 18.25H14.25C14.0511 18.25 13.8603 18.329 13.7197 18.4697C13.579 18.6103 13.5 18.8011 13.5 19C13.5 19.1989 13.579 19.3897 13.7197 19.5303C13.8603 19.671 14.0511 19.75 14.25 19.75H16.875C17.7701 19.75 18.6285 19.3944 19.2615 18.7615C19.8944 18.1285 20.25 17.2701 20.25 16.375V13.75ZM5.25 9.25C5.05109 9.25 4.86032 9.32902 4.71967 9.46967C4.57902 9.61032 4.5 9.80109 4.5 10C4.5 10.1989 4.57902 10.3897 4.71967 10.5303C4.86032 10.671 5.05109 10.75 5.25 10.75H15.75C15.9489 10.75 16.1397 10.671 16.2803 10.5303C16.421 10.3897 16.5 10.1989 16.5 10C16.5 9.80109 16.421 9.61032 16.2803 9.46967C16.1397 9.32902 15.9489 9.25 15.75 9.25H5.25Z" fill="black"/>
</svg>
