<svg width="66" height="40" viewBox="0 0 66 40" fill="none" xmlns="http://www.w3.org/2000/svg">
<path d="M0 8.5C0 4.08172 3.58172 0.5 8 0.5H58C62.4183 0.5 66 4.08172 66 8.5V31.5C66 35.9183 62.4183 39.5 58 39.5H8C3.58172 39.5 0 35.9183 0 31.5V8.5Z" fill="#040404"/>
<path d="M24.4304 12.4545V27H21.7741L15.446 17.8452H15.3395V27H12.2642V12.4545H14.9631L21.2415 21.6023H21.3693V12.4545H24.4304ZM39.805 17.5469H36.6942C36.6374 17.1444 36.5214 16.7869 36.3462 16.4744C36.171 16.1572 35.9461 15.8873 35.6715 15.6648C35.3969 15.4422 35.0797 15.2718 34.7198 15.1534C34.3647 15.035 33.9788 14.9759 33.5621 14.9759C32.8093 14.9759 32.1535 15.1629 31.5948 15.5369C31.0361 15.9062 30.6029 16.446 30.2951 17.1562C29.9873 17.8617 29.8335 18.7187 29.8335 19.7273C29.8335 20.7642 29.9873 21.6354 30.2951 22.3409C30.6076 23.0464 31.0432 23.5791 31.6019 23.9389C32.1606 24.2988 32.8069 24.4787 33.5408 24.4787C33.9528 24.4787 34.3339 24.4242 34.6843 24.3153C35.0394 24.2064 35.3543 24.0478 35.6289 23.8395C35.9035 23.6264 36.1308 23.3684 36.3107 23.0653C36.4954 22.7623 36.6232 22.4167 36.6942 22.0284L39.805 22.0426C39.7246 22.7102 39.5233 23.3542 39.2013 23.9744C38.8841 24.59 38.4556 25.1416 37.9158 25.6293C37.3808 26.1122 36.7416 26.4957 35.9982 26.7798C35.2596 27.0592 34.4239 27.1989 33.4911 27.1989C32.1938 27.1989 31.0337 26.9053 30.011 26.3182C28.993 25.7311 28.1881 24.8812 27.5962 23.7685C27.0091 22.6558 26.7156 21.3087 26.7156 19.7273C26.7156 18.1411 27.0138 16.7917 27.6104 15.679C28.207 14.5663 29.0167 13.7187 30.0394 13.1364C31.0621 12.5492 32.2127 12.2557 33.4911 12.2557C34.3339 12.2557 35.1152 12.3741 35.8349 12.6108C36.5593 12.8475 37.2009 13.1932 37.7596 13.6477C38.3183 14.0975 38.7728 14.6491 39.1232 15.3026C39.4783 15.956 39.7056 16.7041 39.805 17.5469ZM41.4563 14.9901V12.4545H53.4023V14.9901H48.9492V27H45.9094V14.9901H41.4563Z" fill="white"/>
</svg>
