<svg width="66" height="40" viewBox="0 0 66 40" fill="none" xmlns="http://www.w3.org/2000/svg">
<path d="M0 8.5C0 4.08172 3.58172 0.5 8 0.5H58C62.4183 0.5 66 4.08172 66 8.5V31.5C66 35.9183 62.4183 39.5 58 39.5H8C3.58172 39.5 0 35.9183 0 31.5V8.5Z" fill="#040404"/>
<path d="M25.4304 12.4545V27H22.7741L16.446 17.8452H16.3395V27H13.2642V12.4545H15.9631L22.2415 21.6023H22.3693V12.4545H25.4304ZM40.805 17.5469H37.6942C37.6374 17.1444 37.5214 16.7869 37.3462 16.4744C37.171 16.1572 36.9461 15.8873 36.6715 15.6648C36.3969 15.4422 36.0797 15.2718 35.7198 15.1534C35.3647 15.035 34.9788 14.9759 34.5621 14.9759C33.8093 14.9759 33.1535 15.1629 32.5948 15.5369C32.0361 15.9062 31.6029 16.446 31.2951 17.1562C30.9873 17.8617 30.8335 18.7187 30.8335 19.7273C30.8335 20.7642 30.9873 21.6354 31.2951 22.3409C31.6076 23.0464 32.0432 23.5791 32.6019 23.9389C33.1606 24.2988 33.8069 24.4787 34.5408 24.4787C34.9528 24.4787 35.3339 24.4242 35.6843 24.3153C36.0394 24.2064 36.3543 24.0478 36.6289 23.8395C36.9035 23.6264 37.1308 23.3684 37.3107 23.0653C37.4954 22.7623 37.6232 22.4167 37.6942 22.0284L40.805 22.0426C40.7246 22.7102 40.5233 23.3542 40.2013 23.9744C39.8841 24.59 39.4556 25.1416 38.9158 25.6293C38.3808 26.1122 37.7416 26.4957 36.9982 26.7798C36.2596 27.0592 35.4239 27.1989 34.4911 27.1989C33.1938 27.1989 32.0337 26.9053 31.011 26.3182C29.993 25.7311 29.1881 24.8812 28.5962 23.7685C28.0091 22.6558 27.7156 21.3087 27.7156 19.7273C27.7156 18.1411 28.0138 16.7917 28.6104 15.679C29.207 14.5663 30.0167 13.7187 31.0394 13.1364C32.0621 12.5492 33.2127 12.2557 34.4911 12.2557C35.3339 12.2557 36.1152 12.3741 36.8349 12.6108C37.5593 12.8475 38.2009 13.1932 38.7596 13.6477C39.3183 14.0975 39.7728 14.6491 40.1232 15.3026C40.4783 15.956 40.7056 16.7041 40.805 17.5469ZM43.0103 27V12.4545H52.641V14.9901H46.0856V18.456H52.0018V20.9915H46.0856V27H43.0103Z" fill="white"/>
</svg>
